# xmcd
# Track frame offsets:
# 150
# 18480
# 43087
# 62340
# 83590
# 105895
# 130997
# 164612
#
# Disc length: 2384 seconds
# Revision: 0
# Processed by: cddbd v1.5PL3 Copyright (c) Steve Scherf et al.
# Submitted via: VisiTrax 2.9.7.197 - For more info visit www.synapsa.com
#
DISCID=5a094e08
DTITLE=Michael Gough - Soul Tuggin'
DYEAR=1900
DGENRE=
TTITLE0=Somebody's Holding My Own
TTITLE1=Hard On a Man
TTITLE2=Liberty Line
TTITLE3=It Didn't Work Out (this time)
TTITLE4=Going Down
TTITLE5=One Way Out
TTITLE6=Tobacco Road
TTITLE7=We Danced (all night)
EXTD=
EXTT0=
EXTT1=
EXTT2=
EXTT3=
EXTT4=
EXTT5=
EXTT6=
EXTT7=
PLAYORDER=
